<?xml version="1.0" standalone="no"?>
<svg xmlns="http://www.w3.org/2000/svg" viewBox="0 0 511 512">
<g transform="translate(0,512) scale(0.1,-0.1)" fill="#000000" stroke="none">
<path d="M1 4523 c1 -329 5 -580 9 -558 5 22 13 56 18 75 6 19 17 58 25 85 8 28 24 73 36 100 13 28 29 68 37 90 13 34 98 181 113 195 4 3 18 23 33 45 22 33 69 88 137 160 5 6 28 26 52 45 23 19 61 52 83 72 23 21 56 45 75 54 19 9 43 24 53 34 18 16 138 80 151 80 3 0 32 12 64 26 32 15 83 33 113 41 30 8 71 19 90 24 19 6 51 14 70 19 19 4 -233 8 -562 9 l-598 1 1 -597z"/>
<path d="M3900 5114 c193 -30 389 -102 560 -207 33 -21 44 -29 92 -69 12 -10 24 -18 28 -18 7 0 37 -27 150 -134 42 -40 76 -86 73 -98 -2 -4 4 -8 12 -8 8 0 15 -4 15 -9 0 -5 16 -28 35 -51 28 -34 33 -45 24 -56 -9 -12 -9 -13 3 -9 10 4 23 -12 43 -52 16 -32 39 -74 50 -93 12 -19 24 -44 28 -55 3 -11 17 -52 31 -92 24 -66 36 -112 56 -218 4 -22 8 233 9 568 l1 607 -617 -1 c-340 -1 -607 -3 -593 -5z"/>
<path d="M1233 5079 c-246 -32 -527 -160 -722 -330 -292 -255 -456 -587 -479 -974 -10 -159 -8 -2551 2 -2635 47 -392 299 -763 647 -954 134 -73 289 -125 438 -146 45 -6 579 -10 1440 -10 1525 -1 1483 -2 1671 67 457 169 771 550 842 1020 8 56 11 440 12 1388 0 1373 1 1339 -44 1530 -87 368 -352 706 -701 894 -109 59 -281 118 -413 141 -111 19 -154 20 -1373 19 -692 -1 -1286 -5 -1320 -10z m1594 -834 c273 -36 506 -105 738 -220 493 -243 829 -639 930 -1095 9 -41 19 -129 22 -195 5 -119 5 -121 -20 -150 l-25 -30 -435 -3 -435 -3 -29 25 c-29 24 -30 30 -37 133 -8 122 -20 146 -70 141 -50 -5 -56 -30 -56 -239 0 -179 -1 -187 -26 -237 -44 -89 -133 -132 -234 -111 -45 9 -63 19 -101 59 -66 67 -69 90 -69 478 0 339 -2 352 -41 352 -40 0 -40 -12 -40 -506 0 -401 -2 -481 -14 -505 -28 -54 -86 -65 -132 -25 l-28 24 0 515 0 515 30 44 c79 112 250 125 342 26 51 -54 53 -72 53 -447 l0 -351 24 -15 c19 -13 29 -14 45 -5 20 10 21 19 21 196 0 230 7 261 74 330 61 62 123 81 204 63 114 -25 182 -111 182 -229 l0 -60 323 0 323 0 -7 71 c-29 271 -157 526 -369 740 -294 295 -693 485 -1143 544 -135 17 -403 20 -527 5 -699 -85 -1287 -490 -1481 -1022 -36 -98 -59 -208 -59 -284 l0 -54 314 0 314 0 4 60 c6 80 43 135 117 173 114 57 233 21 303 -91 22 -36 23 -47 26 -289 4 -270 7 -287 52 -263 l20 11 -6 522 c-7 476 -6 525 10 554 20 40 43 53 93 53 40 0 73 -21 92 -57 8 -15 11 -181 11 -555 0 -595 2 -576 -71 -645 -44 -41 -77 -53 -150 -53 -67 0 -107 16 -157 63 -54 52 -62 99 -62 358 0 246 -3 259 -54 259 -41 0 -58 -32 -58 -107 1 -37 -4 -83 -9 -101 -20 -61 -29 -62 -418 -62 l-351 0 25 -66 c100 -266 320 -494 655 -678 46 -26 88 -53 92 -59 4 -7 8 -126 8 -264 0 -139 3 -253 6 -253 4 0 130 88 280 195 l274 196 117 -17 c82 -12 188 -18 348 -18 252 -1 384 11 532 50 118 31 128 30 164 -5 55 -55 28 -126 -57 -150 -75 -21 -230 -50 -326 -60 -125 -14 -486 -14 -619 0 l-103 10 -40 -29 c-23 -16 -165 -119 -318 -230 -251 -184 -280 -202 -317 -202 -31 0 -49 7 -76 31 l-35 31 0 297 c0 341 13 298 -112 375 -174 107 -372 285 -479 431 -152 209 -230 444 -215 650 25 329 176 629 452 895 317 305 727 498 1194 560 173 23 439 25 597 5z m-332 -404 c51 -23 101 -80 115 -130 7 -28 10 -308 8 -885 l-3 -844 -30 -44 c-48 -67 -95 -89 -182 -86 -61 3 -78 8 -114 33 -23 17 -52 48 -63 70 -21 40 -21 50 -24 878 -2 569 1 851 8 878 22 82 111 149 200 149 25 0 63 -9 85 -19z"/>
<path d="M2382 3688 c-17 -17 -17 -1659 0 -1676 17 -17 55 -15 62 3 8 21 9 1663 1 1675 -9 14 -49 12 -63 -2z"/>
<path d="M1 538 l-1 -538 543 1 c298 1 529 4 512 6 -16 2 -55 13 -85 23 -30 10 -71 22 -90 26 -75 15 -320 145 -388 206 -15 13 -41 34 -59 47 -18 14 -29 29 -26 34 3 6 1 7 -5 4 -15 -10 -152 152 -214 253 -57 93 -75 127 -119 235 -16 39 -52 160 -59 200 -4 22 -8 -202 -9 -497z"/>
<path d="M5088 997 c-40 -151 -48 -173 -97 -277 -18 -38 -108 -185 -131 -214 -45 -56 -143 -166 -149 -166 -3 0 -25 -17 -47 -38 -66 -59 -97 -82 -106 -76 -4 3 -8 0 -8 -5 0 -14 -152 -103 -227 -132 -13 -5 -33 -13 -45 -19 -42 -18 -145 -47 -223 -64 -11 -2 222 -4 518 -5 l537 -1 0 530 c0 292 -1 530 -2 530 -2 0 -10 -28 -20 -63z"/>
</g>
</svg>
